<?xml version="1.0" encoding="UTF-8"?>
<svg width="20px" height="20px" viewBox="0 0 20 20" version="1.1" xmlns="http://www.w3.org/2000/svg" xmlns:xlink="http://www.w3.org/1999/xlink">
    <!-- Generator: Sketch 45.2 (43514) - http://www.bohemiancoding.com/sketch -->
    <title>Artboard Copy 24</title>
    <desc>Created with Sketch.</desc>
    <defs></defs>
    <g id="icon" stroke="none" stroke-width="1" fill="none" fill-rule="evenodd">
        <g id="Artboard-Copy-24" fill-rule="nonzero" fill="#999999">
            <path d="M6.67610373,11.5073006 C5.76526321,11.2128752 4.9416845,10.7931926 4.20369063,10.2664903 L2.14764042,12.2519949 C1.75184782,12.6342074 1.12115008,12.6231985 0.738937604,12.2274059 L0.738937604,12.2274059 C0.356725126,11.8316133 0.367733996,11.2009156 0.763526603,10.8187031 L0.763526603,10.8187031 L2.71212794,8.93696067 C1.83354765,7.97408872 1.30774922,7.02874061 1.05837153,6.34281766 C0.869747605,5.82400029 1.13584722,5.249931 1.65272165,5.06059804 C2.16959608,4.87126507 2.74151551,5.13836496 2.93013943,5.65718234 C2.96861478,5.76301028 3.06912916,5.9856562 3.23965366,6.28553803 C3.53230454,6.80018948 3.91114915,7.3172437 4.38285676,7.7991747 C5.73111667,9.17665563 7.55007338,10 9.96429588,10 C12.3785184,10 14.1974751,9.17665563 15.545735,7.7991747 C16.0174426,7.3172437 16.3962872,6.80018948 16.6889381,6.28553803 C16.8594626,5.9856562 16.959977,5.76301028 16.9984523,5.65718234 C17.1870763,5.13836496 17.7589957,4.87126507 18.2758701,5.06059804 C18.7927445,5.249931 19.0588442,5.82400029 18.8702202,6.34281766 C18.6209998,7.02830815 18.095707,7.97289679 17.2181252,8.9351395 L19.1685978,10.8186891 L19.1685978,10.8186891 C19.5643904,11.2009015 19.5753993,11.8315993 19.1931868,12.2273919 L19.1931868,12.2273919 C18.8109744,12.6231845 18.1802766,12.6341934 17.784484,12.2519809 L15.7269406,10.2650343 C14.9936847,10.788663 14.1759048,11.206613 13.2719549,11.5009846 L14.4083146,13.4692174 L14.4083146,13.4692174 C14.6834228,13.9457188 14.5201613,14.5550188 14.0436599,14.8301271 C13.5671585,15.1052353 12.9578584,14.9419739 12.6827502,14.4654724 L11.221261,11.9340989 C10.8159161,11.9776659 10.3969615,12 9.96429588,12 C9.53937306,12 9.1276749,11.9784581 8.72910548,11.9364174 L7.26895492,14.4654724 C6.99384669,14.9419739 6.38454666,15.1052353 5.90804521,14.8301271 C5.43154377,14.5550188 5.26828232,13.9457188 5.54339056,13.4692174 L6.67610373,11.5073006 Z" id="Path-4"></path>
        </g>
    </g>
</svg>