<?xml version="1.0" encoding="UTF-8"?>
<svg width="20px" height="20px" viewBox="0 0 20 20" version="1.1" xmlns="http://www.w3.org/2000/svg" xmlns:xlink="http://www.w3.org/1999/xlink">
    <!-- Generator: Sketch 45.2 (43514) - http://www.bohemiancoding.com/sketch -->
    <title>Artboard Copy 25</title>
    <desc>Created with Sketch.</desc>
    <defs></defs>
    <g id="icon" stroke="none" stroke-width="1" fill="none" fill-rule="evenodd">
        <g id="Artboard-Copy-25" fill-rule="nonzero" fill="#999999">
            <path d="M10.6827665,7.078039 C10.4741641,7.33570218 10.3492072,7.66386207 10.3492072,8.02120721 C10.3492072,8.84963434 11.0207801,9.52120721 11.8492072,9.52120721 C12.2431047,9.52120721 12.6015409,9.36937957 12.8691864,9.12105375 C12.9542374,9.39903132 13,9.69417145 13,10 C13,11.6568542 11.6568542,13 10,13 C8.34314575,13 7,11.6568542 7,10 C7,8.34314575 8.34314575,7 10,7 C10.2348703,7 10.4634366,7.02699049 10.6827665,7.078039 Z M10,15.5714286 C4.74186036,15.5714286 1.83439312,11.3058426 1.83439312,11.3058426 C1.08975515,10.4836066 1.10634809,9.11189174 1.81993575,8.28068952 C1.81993575,8.28068952 4.74186036,4 10,4 C15.2581396,4 18.1656069,8.26558597 18.1656069,8.26558597 C18.9102448,9.08782196 18.8936519,10.4595368 18.1800642,11.2907391 C18.1800642,11.2907391 15.2581396,15.5714286 10,15.5714286 Z M10,13.5714286 C11.8200135,13.5714286 13.4331805,12.9325738 14.840497,11.8473115 C15.3427289,11.4600118 15.7797968,11.044186 16.1453612,10.6321925 C16.353423,10.3977054 16.4825523,10.2300749 16.5281976,10.1632035 L16.6625696,9.98796892 C16.7352034,9.90336357 16.7353188,9.66569694 16.6831725,9.60811651 L16.5906351,9.50593584 L16.5129923,9.39202506 C16.4679464,9.32593766 16.3397942,9.15943259 16.1329789,8.92628522 C15.7693558,8.51636504 15.3342851,8.10257039 14.8339781,7.71711239 C13.4312437,6.63638554 11.8207788,6 10,6 C8.17998649,6 6.56681946,6.6388548 5.15950299,7.72411708 C4.65727112,8.11141682 4.22020316,8.52724252 3.85463884,8.93923607 C3.64657703,9.17372318 3.5174477,9.34135368 3.47180241,9.40822512 L3.33743039,9.58345965 C3.26479664,9.668065 3.26468121,9.90573163 3.31682752,9.96331206 L3.40936495,10.0654927 L3.48700771,10.1794035 C3.53205356,10.2454909 3.66020576,10.411996 3.86702109,10.6451433 C4.23064423,11.0550635 4.66571492,11.4688582 5.16602192,11.8543162 C6.56875634,12.935043 8.17922115,13.5714286 10,13.5714286 Z" id="Oval-4"></path>
        </g>
    </g>
</svg>